# xmcd CD database file
#
# Track frame offsets:
#	150
#	17000
#	29245
#	44065
#	56380
#	70405
#	87102
#	102205
#	119675
#	138057
#	150632
#
# Disc length: 2238 seconds
#
# Revision: 2
# Processed by: cddbd v1.5.2PL0 Copyright (c) Steve Scherf et al.
# Submitted via: CDex 1.51
#
DISCID=9508bc0b
DTITLE=Willie Nelson - San Antonio Rose
DYEAR=1980
DGENRE=Swing
TTITLE0=San Antonio Rose
TTITLE1=I'll Be There
TTITLE2=I Fall To Pieces
TTITLE3=Crazy Arms
TTITLE4=Release Me
TTITLE5=Don't You Ever Get Tired Of Hurting Me
TTITLE6=This Cold War With You
TTITLE7=Funny How Time Slips Away
TTITLE8=Night Life
TTITLE9=Deep Water
TTITLE10=Faded Love
EXTD=YEAR: 1980
EXTT0=
EXTT1=
EXTT2=
EXTT3=
EXTT4=
EXTT5=
EXTT6=
EXTT7=
EXTT8=
EXTT9=
EXTT10=
PLAYORDER=
